<svg width="945" height="653" viewBox="0 0 945 653" fill="none" xmlns="http://www.w3.org/2000/svg">
<g id="undraw_camera_mg5h 1">
<g id="background">
<path id="Vector" d="M722.297 119.274L599.704 203.07H779.574L722.297 119.274Z" fill="url(#paint0_linear)"/>
<path id="Vector_2" d="M789.145 212.022H588.498L527.329 253.833H817.724L789.145 212.022Z" fill="url(#paint1_linear)"/>
<path id="Vector_3" d="M520.047 262.08L326.168 394.601L464.272 596.646L866 322.053L825.007 262.08H520.047Z" fill="url(#paint2_linear)"/>
</g>
<g id="camera">
<path id="Vector_4" d="M320.186 353.695C327.804 353.695 333.98 350.119 333.98 345.709C333.98 341.298 327.804 337.723 320.186 337.723C312.568 337.723 306.392 341.298 306.392 345.709C306.392 350.119 312.568 353.695 320.186 353.695Z" fill="#3F3D56"/>
<path id="Vector_5" d="M682.636 404.151H372.638L380.261 376.709L386.853 352.969L398.048 312.676H657.952L668.827 352.969L676.269 380.556L682.636 404.151Z" fill="#3F3D56"/>
<path id="Vector_6" opacity="0.1" d="M676.269 380.556H380.261V376.709L386.853 352.969H668.827L676.269 380.556Z" fill="black"/>
<path id="Vector_7" d="M340.332 343.168H300.04V374.385H340.332V343.168Z" fill="#20C5D0"/>
<path id="Vector_8" d="M785 358.414H271V632.837H785V358.414Z" fill="#3F3D56"/>
<path id="Vector_9" d="M785 461.504H271V529.747H785V461.504Z" fill="url(#paint3_linear)"/>
<path id="Vector_10" d="M528 623.036C598.367 623.036 655.411 565.993 655.411 495.625C655.411 425.258 598.367 368.214 528 368.214C457.633 368.214 400.589 425.258 400.589 495.625C400.589 565.993 457.633 623.036 528 623.036Z" fill="#2F2E41"/>
<path id="Vector_11" d="M528 613.962C593.355 613.962 646.336 560.981 646.336 495.625C646.336 430.27 593.355 377.289 528 377.289C462.645 377.289 409.664 430.27 409.664 495.625C409.664 560.981 462.645 613.962 528 613.962Z" fill="#504E68"/>
<path id="Vector_12" d="M528 585.648C577.718 585.648 618.023 545.344 618.023 495.625C618.023 445.907 577.718 405.603 528 405.603C478.282 405.603 437.977 445.907 437.977 495.625C437.977 545.344 478.282 585.648 528 585.648Z" fill="#2F2E41"/>
<path id="Vector_13" opacity="0.2" d="M705.867 386.001C710.679 386.001 714.579 382.101 714.579 377.289C714.579 372.478 710.679 368.577 705.867 368.577C701.056 368.577 697.155 372.478 697.155 377.289C697.155 382.101 701.056 386.001 705.867 386.001Z" fill="#20B0D0"/>
<path id="Vector_14" d="M558.129 319.21H497.145V346.798H558.129V319.21Z" fill="#2F2E41"/>
<path id="Vector_15" opacity="0.5" d="M732.003 386.001C736.814 386.001 740.715 382.101 740.715 377.289C740.715 372.478 736.814 368.577 732.003 368.577C727.191 368.577 723.291 372.478 723.291 377.289C723.291 382.101 727.191 386.001 732.003 386.001Z" fill="#20B0D0"/>
<path id="Vector_16" d="M758.138 386.001C762.95 386.001 766.85 382.101 766.85 377.289C766.85 372.478 762.95 368.577 758.138 368.577C753.327 368.577 749.427 372.478 749.427 377.289C749.427 382.101 753.327 386.001 758.138 386.001Z" fill="#20C5D0"/>
</g>
<g id="man-pic">
<path id="Vector_17" d="M52.799 237.033L58.1375 231.695C58.1375 231.695 71.7803 207.968 58.1375 209.748C44.4947 211.527 44.4947 223.39 44.4947 223.39V237.033L52.799 237.033Z" fill="#B67B84"/>
<path id="Vector_18" d="M343 58.139L111.132 1.52588e-05L54.4356 226.114L286.304 284.253L343 58.139Z" fill="#3C3A49"/>
<path id="Vector_19" opacity="0.2" d="M321.701 67.7317L122.57 17.8014L87.5813 157.343L286.712 207.273L321.701 67.7317Z" fill="url(#paint4_linear)"/>
<path id="Vector_20" d="M137.187 234.364C150.367 234.364 161.052 225.467 161.052 214.493C161.052 203.518 150.367 194.622 137.187 194.622C124.006 194.622 113.321 203.518 113.321 214.493C113.321 225.467 124.006 234.364 137.187 234.364Z" fill="#2F2E41"/>
<path id="Vector_21" d="M100.252 375.241C100.252 375.241 91.3548 399.561 89.5753 461.25C87.7958 522.939 86.0163 561.495 93.7275 566.833C101.439 572.172 112.709 570.986 113.302 569.799C113.895 568.613 116.861 491.501 116.861 491.501L132.283 433.964L149.485 473.113V541.327C149.485 541.327 162.535 553.191 167.873 541.921C173.212 530.65 176.771 473.113 176.771 473.113C176.771 473.113 183.296 375.241 172.025 363.378C160.755 351.514 100.252 375.241 100.252 375.241Z" fill="#3C3A49"/>
<path id="Vector_22" d="M102.032 566.833C102.032 566.833 95.507 560.902 90.1685 568.613C84.83 576.324 67.035 592.933 71.1872 595.899C75.3393 598.864 96.6933 600.051 99.066 597.085C99.066 597.085 116.268 589.374 116.268 587.594C116.268 585.815 113.895 566.24 111.522 566.833C109.15 567.427 102.625 572.172 102.032 566.833Z" fill="#3C3A49"/>
<path id="Vector_23" d="M157.789 537.768H169.285C169.285 537.768 166.094 546.073 169.06 546.073C172.025 546.073 199.311 568.613 188.634 570.986C177.957 573.358 147.706 562.681 146.519 559.122C145.333 555.563 150.671 539.548 150.671 539.548L157.789 543.107V537.768Z" fill="#3C3A49"/>
<path id="Vector_24" d="M124.572 229.915C124.572 229.915 123.386 250.083 117.454 251.862C111.522 253.642 136.435 272.03 136.435 272.03L153.637 249.49C153.637 249.49 147.112 238.22 149.485 229.915C151.858 221.611 124.572 229.915 124.572 229.915Z" fill="#B67B84"/>
<path id="Vector_25" opacity="0.1" d="M124.572 229.915C124.572 229.915 123.386 250.083 117.454 251.862C111.522 253.642 136.435 272.03 136.435 272.03L153.637 249.49C153.637 249.49 147.112 238.22 149.485 229.915C151.858 221.611 124.572 229.915 124.572 229.915Z" fill="black"/>
<path id="Vector_26" d="M135.249 253.049C135.249 253.049 114.488 245.338 111.522 247.117C108.557 248.897 80.6778 261.353 80.0847 263.726C79.4915 266.098 83.6436 300.502 83.6436 300.502C83.6436 300.502 90.7616 303.468 91.3548 315.924C91.9479 328.381 107.963 347.955 102.625 361.005C97.2865 374.055 91.948 378.8 102.032 380.579C112.116 382.359 157.789 379.393 160.162 375.241C162.535 371.089 176.178 365.157 180.33 366.343C184.482 367.53 177.957 304.654 177.957 304.654L181.516 295.757L193.379 263.133C193.379 263.133 175.584 242.965 158.383 244.744C158.383 244.744 139.401 247.117 135.249 253.049Z" fill="#555AA8"/>
<path id="Vector_27" d="M88.9821 265.505L80.0847 263.726C80.0847 263.726 71.1872 269.657 68.2213 269.657C65.2555 269.657 65.2555 272.03 65.2555 272.03C65.2555 272.03 53.9853 254.828 56.358 235.254C56.358 235.254 42.7152 228.729 42.122 233.474C41.5288 238.22 36.7835 292.198 46.8674 295.757C56.9512 299.316 91.3548 299.909 91.3548 299.909L88.9821 265.505Z" fill="#555AA8"/>
<path id="Vector_28" d="M185.075 261.946H193.379L215.326 283.893C215.326 283.893 220.665 282.707 222.444 286.266C224.224 289.825 236.087 289.232 236.087 289.232L267.525 292.198C267.525 292.198 271.677 305.841 268.711 308.213C265.746 310.586 213.547 311.179 213.547 311.179C213.547 311.179 208.802 308.806 205.836 311.179C202.87 313.552 181.516 298.723 179.143 294.57C176.771 290.418 185.075 261.946 185.075 261.946Z" fill="#555AA8"/>
<path id="Vector_29" d="M138.215 239.406C150.336 239.406 160.162 229.58 160.162 217.459C160.162 205.338 150.336 195.512 138.215 195.512C126.094 195.512 116.268 205.338 116.268 217.459C116.268 229.58 126.094 239.406 138.215 239.406Z" fill="#B67B84"/>
<path id="Vector_30" d="M124.607 204.694C124.607 204.694 120.854 194.934 126.297 191.743L127.798 196.06C127.798 196.06 141.5 187.802 145.066 189.679L141.687 194.183C141.687 194.183 157.641 194.183 158.767 200.377L153.136 200.565C153.136 200.565 159.143 204.506 159.33 210.888L147.318 211.639L153.136 215.017C153.136 215.017 131.364 218.02 126.109 209.386L124.607 204.694Z" fill="#2F2E41"/>
<path id="Vector_31" d="M116.564 208.858C116.564 208.858 122.925 215.112 131.156 212.025C139.388 208.938 131.156 197.62 131.156 197.62L125.669 194.876L116.564 208.858Z" fill="#2F2E41"/>
<path id="Vector_32" d="M264.559 294.57L269.898 292.791C269.898 292.791 284.134 271.437 285.913 280.928C287.693 290.418 278.795 303.468 278.795 303.468H264.559L264.559 294.57Z" fill="#B67B84"/>
</g>
<g id="points-Camera">
<path id="Vector_33" d="M558 297.757C564.075 297.757 569 292.832 569 286.757C569 280.682 564.075 275.757 558 275.757C551.925 275.757 547 280.682 547 286.757C547 292.832 551.925 297.757 558 297.757Z" stroke="#C1BBFF" stroke-width="2" stroke-miterlimit="10"/>
<path id="Vector_34" d="M524 255.757C530.075 255.757 535 250.832 535 244.757C535 238.682 530.075 233.757 524 233.757C517.925 233.757 513 238.682 513 244.757C513 250.832 517.925 255.757 524 255.757Z" stroke="#C1BBFF" stroke-width="2" stroke-miterlimit="10"/>
<path id="Vector_35" d="M580 223.757C586.075 223.757 591 218.832 591 212.757C591 206.682 586.075 201.757 580 201.757C573.925 201.757 569 206.682 569 212.757C569 218.832 573.925 223.757 580 223.757Z" stroke="#C1BBFF" stroke-width="2" stroke-miterlimit="10"/>
</g>
<g id="points-pic">
<path id="Vector_36" d="M228.633 126.907L209.15 137.124L219.367 156.607L238.85 146.39L228.633 126.907Z" stroke="#F2F2F2" stroke-width="2" stroke-miterlimit="10"/>
<path id="Vector_37" d="M180.026 119.731L160.974 108.731L149.974 127.783L169.026 138.783L180.026 119.731Z" fill="#20C5D0"/>
<path id="Vector_38" d="M208 102.757C214.075 102.757 219 97.832 219 91.7569C219 85.6817 214.075 80.7569 208 80.7569C201.925 80.7569 197 85.6817 197 91.7569C197 97.832 201.925 102.757 208 102.757Z" stroke="#F2F2F2" stroke-width="2" stroke-miterlimit="10"/>
</g>
</g>
<defs>
<linearGradient id="paint0_linear" x1="723" y1="126" x2="613" y2="203" gradientUnits="userSpaceOnUse">
<stop stop-color="#8374DC"/>
<stop offset="1" stop-color="#8FC6EE"/>
</linearGradient>
<linearGradient id="paint1_linear" x1="768" y1="212" x2="519" y2="261" gradientUnits="userSpaceOnUse">
<stop stop-color="#4C91F7"/>
<stop offset="0.9999" stop-color="#97C5E8"/>
<stop offset="1" stop-color="#1F94E9" stop-opacity="0"/>
</linearGradient>
<linearGradient id="paint2_linear" x1="715" y1="269" x2="463" y2="534" gradientUnits="userSpaceOnUse">
<stop stop-color="#28B2EE"/>
<stop offset="1" stop-color="#F2F2F2" stop-opacity="0"/>
</linearGradient>
<linearGradient id="paint3_linear" x1="528" y1="461.504" x2="528" y2="529.747" gradientUnits="userSpaceOnUse">
<stop stop-color="#20D0C5"/>
<stop offset="1" stop-color="#77A2C0"/>
</linearGradient>
<linearGradient id="paint4_linear" x1="222.135" y1="42.7666" x2="187.147" y2="182.308" gradientUnits="userSpaceOnUse">
<stop stop-color="#56F4FE"/>
<stop offset="1" stop-color="#41AAB0" stop-opacity="0.85"/>
</linearGradient>
</defs>
</svg>
