<svg xmlns="http://www.w3.org/2000/svg" xmlns:xlink="http://www.w3.org/1999/xlink" width="771.05" height="773.516" viewBox="0 0 771.05 773.516">
  <defs>
    <linearGradient id="linear-gradient" x1="0.5" y1="1" x2="0.5" gradientUnits="objectBoundingBox">
      <stop offset="0" stop-color="gray" stop-opacity="0.251"/>
      <stop offset="0.54" stop-color="gray" stop-opacity="0.122"/>
      <stop offset="1" stop-color="gray" stop-opacity="0.102"/>
    </linearGradient>
    <linearGradient id="linear-gradient-2" x1="0.507" y1="1.057" x2="0.507" y2="-0.083" xlink:href="#linear-gradient"/>
    <linearGradient id="linear-gradient-3" x1="1.054" y1="0.016" x2="0.022" y2="0.576" gradientUnits="objectBoundingBox">
      <stop offset="0" stop-color="#3d81c7"/>
      <stop offset="1" stop-color="#3cc6d4"/>
    </linearGradient>
    <linearGradient id="linear-gradient-5" x1="0.776" y1="1.131" x2="0.776" y2="0.131" xlink:href="#linear-gradient"/>
    <clipPath id="clip-path">
      <rect id="Rechteck_8" data-name="Rechteck 8" width="533.63" height="482.97" transform="translate(96.43 116.05)" fill="url(#linear-gradient)"/>
    </clipPath>
    <linearGradient id="linear-gradient-6" x1="0.5" y1="1" x2="0.5" y2="0" xlink:href="#linear-gradient"/>
    <clipPath id="clip-path-2">
      <rect id="_Rectangle_" data-name="&lt;Rectangle&gt;" width="526.88" height="469.46" transform="translate(100.37 119.99)" fill="#fff"/>
    </clipPath>
    <linearGradient id="linear-gradient-7" x1="0.813" y1="0.748" x2="0.105" y2="0.383" gradientUnits="objectBoundingBox">
      <stop offset="0" stop-color="#fff352"/>
      <stop offset="1" stop-color="#f3b714"/>
    </linearGradient>
    <linearGradient id="linear-gradient-8" x1="0.5" y1="0.225" x2="0.5" y2="1" gradientUnits="objectBoundingBox">
      <stop offset="0" stop-color="#519f55"/>
      <stop offset="1" stop-color="#428747"/>
    </linearGradient>
    <linearGradient id="linear-gradient-9" x1="0.5" x2="0.5" y2="1" gradientUnits="objectBoundingBox">
      <stop offset="0" stop-color="#12cb37"/>
      <stop offset="1" stop-color="#529f56"/>
    </linearGradient>
    <linearGradient id="linear-gradient-10" x1="0.5" x2="0.5" y2="1" gradientUnits="objectBoundingBox">
      <stop offset="0" stop-color="#4b9bc2"/>
      <stop offset="1" stop-color="#3db7c1"/>
    </linearGradient>
  </defs>
  <g id="galerie" transform="translate(0 -0.002)">
    <rect id="Rechteck_3" data-name="Rechteck 3" width="678.86" height="595.81" transform="translate(86.151 672.189) rotate(-81.96)" fill="url(#linear-gradient-2)"/>
    <rect id="Rechteck_4" data-name="Rechteck 4" width="650.71" height="581.85" transform="translate(95.587 655.323) rotate(-81.96)" fill="#fff"/>
    <rect id="_Rectangle_2" data-name="&lt;Rectangle&gt;" width="526.88" height="469.46" transform="translate(210.692 29.752) rotate(8.04)" fill="url(#linear-gradient-3)"/>
    <rect id="_Rectangle_3" data-name="&lt;Rectangle&gt;" width="526.88" height="469.46" transform="translate(210.692 29.752) rotate(8.04)" fill="none" stroke="#6c63ff" stroke-miterlimit="10" stroke-width="5"/>
    <rect id="Rechteck_5" data-name="Rechteck 5" width="595.81" height="678.86" transform="translate(0 94.658)" fill="url(#linear-gradient)"/>
    <rect id="Rechteck_6" data-name="Rechteck 6" width="581.85" height="650.71" transform="translate(6.99 104.798)" fill="#fff"/>
    <rect id="Rechteck_7" data-name="Rechteck 7" width="533.63" height="482.97" transform="translate(29.51 116.048)" fill="url(#linear-gradient-5)"/>
    <g id="Gruppe_1" data-name="Gruppe 1" transform="translate(-66.92 -0.002)" clip-path="url(#clip-path)">
      <path id="Pfad_40" data-name="Pfad 40" d="M358.85,459c17.44,19.24,31.75,43,55,54.18,33.73,16.24,74.78-.11,102.56-25.42s47.25-58.7,73.5-85.66c75.33-77.38,203.3-89.22,297.3-37,13.42,7.45,26.46,16.25,35.94,28.44,12.33,15.86,17.64,36.09,21.61,55.89a585,585,0,0,1,11.07,134.52c-1,30.69-6.84,65.43-32.12,82.25-8,5.31-17.23,8.27-26.39,11-135.88,40.07-280,37.32-421.39,31.3-105.4-4.49-212-10.85-312.67-43-4.63-1.48-9.53-3.21-12.51-7.1-3.37-4.4-3.46-10.48-3-16,1.45-18.27,7-35.91,11.21-53.74a364.51,364.51,0,0,0,8.3-113.43c-2.81-33.67-21.67-62.13,17.27-71.55C245.59,388.8,316.77,412.55,358.85,459Z" transform="translate(-147.54 -63.24)" fill="url(#linear-gradient-6)"/>
    </g>
    <rect id="_Rectangle_4" data-name="&lt;Rectangle&gt;" width="526.88" height="469.46" transform="translate(33.45 119.988)" fill="#fff"/>
    <g id="Gruppe_2" data-name="Gruppe 2" transform="translate(-66.92 -0.002)" clip-path="url(#clip-path-2)">
      <path id="Pfad_41" data-name="Pfad 41" d="M361.33,455.09c17.22,18.7,31.34,41.78,54.31,52.66,33.3,15.78,73.83-.1,101.26-24.71s46.65-57.06,72.57-83.26c74.38-75.21,200.73-86.73,293.53-36,13.25,7.25,26.13,15.8,35.49,27.64,12.18,15.41,17.41,35.08,21.33,54.33A560.079,560.079,0,0,1,950.75,576.5c-1,29.83-6.75,63.6-31.72,80-7.88,5.16-17,8-26.05,10.66-134.16,39-276.48,36.28-416.06,30.42C372.87,693.2,267.59,687,168.22,655.79c-4.57-1.44-9.41-3.12-12.35-6.9-3.33-4.28-3.42-10.19-3-15.59,1.44-17.76,6.93-34.9,11.07-52.24a349,349,0,0,0,8.19-110.26c-2.77-32.72-21.39-60.39,17.05-69.55C249.51,386.88,319.79,410,361.33,455.09Z" transform="translate(-147.54 -63.24)" fill="#6b6b6b"/>
    </g>
    <circle id="Ellipse_9" data-name="Ellipse 9" cx="38.28" cy="38.28" r="38.28" transform="translate(60.46 147.008)" fill="url(#linear-gradient-7)"/>
    <rect id="Rechteck_9" data-name="Rechteck 9" width="18.01" height="138.47" transform="translate(381.32 435.218)" fill="url(#linear-gradient-8)"/>
    <path id="Pfad_42" data-name="Pfad 42" d="M516.5,429.52l-17.06-10.5,14.65,2.61-8.29-27.08L485.74,382.2l17.38,3.6-11.69-38.17-19.55-12.04,16.79,3-11.26-36.77-19.9-12.25,17.08,3.05-17.34-56.67-12.54,41.63,12.54-4.48-14.72,11.73-9.1,30.25,23.82-5.95-28.06,20.04-9.78,32.48,25.45-6.36-29.98,21.42-7.56,25.12,19.53-4.89-23.01,16.44-13.02,43.23H524.79Z" transform="translate(-66.92 -0.002)" fill="url(#linear-gradient-9)"/>
    <rect id="Rechteck_10" data-name="Rechteck 10" width="581.85" height="84.44" transform="translate(6.99 671.078)" fill="url(#linear-gradient-10)"/>
  </g>
</svg>
