<svg xmlns="http://www.w3.org/2000/svg" xmlns:xlink="http://www.w3.org/1999/xlink" width="1406.32" height="1477.26" viewBox="0 0 1406.32 1477.26">
  <defs>
    <linearGradient id="linear-gradient" x1="0.142" y1="0.789" x2="0.782" y2="0.397" gradientUnits="objectBoundingBox">
      <stop offset="0" stop-color="#e541e5"/>
      <stop offset="1" stop-color="#6742df"/>
    </linearGradient>
    <linearGradient id="linear-gradient-2" x1="0.177" y1="0.05" x2="0.511" y2="0.972" gradientUnits="objectBoundingBox">
      <stop offset="0" stop-color="#39f4c9"/>
      <stop offset="1" stop-color="#29c9e1"/>
    </linearGradient>
    <linearGradient id="linear-gradient-3" x1="0.207" y1="0.053" x2="0.361" y2="0.488" gradientUnits="objectBoundingBox">
      <stop offset="0" stop-color="#fff" stop-opacity="0.4"/>
      <stop offset="1" stop-color="#fff" stop-opacity="0.102"/>
    </linearGradient>
    <filter id="Pfad_84" x="0" y="0" width="1406.32" height="1477.26" filterUnits="userSpaceOnUse">
      <feOffset dy="1" input="SourceAlpha"/>
      <feGaussianBlur result="blur"/>
      <feFlood flood-opacity="0.102"/>
      <feComposite operator="in" in2="blur"/>
      <feComposite in="SourceGraphic"/>
    </filter>
    <linearGradient id="linear-gradient-4" x1="0.928" x2="0" y2="0.922" gradientUnits="objectBoundingBox">
      <stop offset="0" stop-color="#fff"/>
      <stop offset="1" stop-color="#dbdbdb"/>
    </linearGradient>
    <linearGradient id="linear-gradient-5" x1="0.104" y1="0.051" x2="0.888" y2="0.913" gradientUnits="objectBoundingBox">
      <stop offset="0" stop-color="#b8f7dc"/>
      <stop offset="1" stop-color="#29c9e1"/>
    </linearGradient>
  </defs>
  <g id="Graphic" transform="translate(-1693.858 -4883.917)">
    <circle id="Ellipse_15" data-name="Ellipse 15" cx="275" cy="275" r="275" transform="translate(1808.781 5621.022)" fill="url(#linear-gradient)"/>
    <path id="Pfad_85" data-name="Pfad 85" d="M294.334,341.7c-21.29,0-4.135-135.855-33.7-140.91S71.547,465.945,31.966,439.873C-12.911,410.312-17.161,129.833,62.446,41.5s215.96-17.538,287.947,45.03S315.624,341.7,294.334,341.7Z" transform="matrix(0.616, 0.788, -0.788, 0.616, 2716.854, 5116.591)" fill="url(#linear-gradient-2)"/>
    <g transform="matrix(1, 0, 0, 1, 1693.86, 4883.92)" filter="url(#Pfad_84)">
      <path id="Pfad_84-2" data-name="Pfad 84" d="M323.973,885.3c-186.935-70.7-343.866-4.434-330.53-263.042s58.773-494.417,249.641-600S505.532,144.841,673.7,321.352,959.115,480.2,972.623,648.516s-90.619,396.107-299,480.411S510.908,956,323.973,885.3Z" transform="matrix(0.88, -0.47, 0.47, 0.88, 8.64, 461.21)" fill="url(#linear-gradient-3)"/>
    </g>
    <g id="undraw_programming_re_kg9v" transform="translate(1964.693 5350.875)">
      <circle id="Ellipse_11" data-name="Ellipse 11" cx="23.611" cy="23.611" r="23.611" transform="translate(381.679 41.987)" fill="url(#linear-gradient-4)"/>
      <path id="Pfad_57" data-name="Pfad 57" d="M800.047,607.285c35.1-26.731,51.858-71.65,41.364-114.5q-.391-1.6-.826-3.187c-6.957-25.435-24.169-49.609-49.255-57.737-21.064-6.824-44.055-1.576-66.03-4.29-43.137-5.327-76.58-40.23-100.112-76.774s-41.616-77.449-72.885-107.64c-51.541-49.764-135.617-60.478-199.52-28.086S248.175,319.331,249.911,390.955s44.256,140.1,106,176.431c22.684,13.347,48.92,22.8,75.031,19.493,22.656-2.871,43.241-15.044,65.79-18.658,35.452-5.682,70.679,10.347,101.343,29.026s60.282,40.819,95.127,49.478C727.04,655.133,768.957,630.965,800.047,607.285Z" transform="translate(-211.596 -167.657)" opacity="0.8" fill="url(#linear-gradient-5)"/>
      <path id="Pfad_58" data-name="Pfad 58" d="M764.754,212.79c-.769-.513-1.548-1-2.317-1.494A336.244,336.244,0,0,0,691.42,176.87l-5.783,79.781H648.973V165.224c-2.308-.478-4.634-.929-6.959-1.353v92.78H598.445a90.437,90.437,0,0,1-90.437-90.437h0c-2.335.5-4.651,1.043-6.968,1.618v88.818H465.554l-5.509-76.076a336.79,336.79,0,0,0-72.459,38.493c-.389.265-.778.539-1.158.8-1.954,1.371-3.882,2.768-5.8,4.183V528.421H485.211l-1.848-25.6L473.194,362.262H677.987L667.818,502.82l-1.848,25.6H769.4V215.867Q767.089,214.3,764.754,212.79ZM501.04,339.049H471.514l-5.456-75.43H501.04Zm140.974,0H592.423v-1.494a5.465,5.465,0,0,0-5.474-5.465H565.39a5.463,5.463,0,0,0-5.465,5.465v1.494H508.008v-75.43H642.014Zm6.959,0v-75.43h36.159l-5.456,75.43Z" transform="translate(-226.727 -163.871)" fill="#3f3d56"/>
      <path id="Pfad_59" data-name="Pfad 59" d="M206.59,598.162a255.551,255.551,0,0,0,24.866,25.6l646.047.884a255.564,255.564,0,0,0,24.866-25.6Z" transform="translate(-206.59 -214.122)" fill="#3f3d56"/>
      <path id="Pfad_60" data-name="Pfad 60" d="M702.02,504.986v75.787a3.645,3.645,0,0,0,3.642,3.643H817.971a3.645,3.645,0,0,0,3.643-3.643V504.986a3.647,3.647,0,0,0-3.643-3.638H705.662a3.647,3.647,0,0,0-3.642,3.638Z" transform="translate(-263.915 -202.919)" fill="#3f3d56"/>
      <path id="Pfad_61" data-name="Pfad 61" d="M705,506.274v73.909a1.95,1.95,0,0,0,1.947,1.947H817.381a1.95,1.95,0,0,0,1.947-1.947V506.274a1.951,1.951,0,0,0-1.947-1.951H706.946A1.951,1.951,0,0,0,705,506.274Z" transform="translate(-264.259 -203.264)" fill="#29c9e1"/>
      <path id="Pfad_62" data-name="Pfad 62" d="M699.3,606.25a2.184,2.184,0,0,0,1.719.822H821.274a2.213,2.213,0,0,0,2.163-2.667l-1.867-8.867a2.217,2.217,0,0,0-1.378-1.607,2.144,2.144,0,0,0-.785-.148H702.877a2.145,2.145,0,0,0-.785.148,2.217,2.217,0,0,0-1.378,1.608l-1.867,8.867a2.211,2.211,0,0,0,.452,1.844Z" transform="translate(-263.542 -213.615)" fill="#2f2e41"/>
      <rect id="Rechteck_6" data-name="Rechteck 6" width="3.704" height="2.222" rx="0.488" transform="translate(555.01 383.987) rotate(180)" fill="#3f3d56"/>
      <rect id="Rechteck_7" data-name="Rechteck 7" width="3.704" height="2.222" rx="0.488" transform="translate(547.603 383.987) rotate(180)" fill="#3f3d56"/>
      <rect id="Rechteck_8" data-name="Rechteck 8" width="3.704" height="2.222" rx="0.488" transform="translate(540.195 383.987) rotate(180)" fill="#3f3d56"/>
      <rect id="Rechteck_9" data-name="Rechteck 9" width="3.704" height="2.222" rx="0.488" transform="translate(532.787 383.987) rotate(180)" fill="#3f3d56"/>
      <rect id="Rechteck_10" data-name="Rechteck 10" width="3.704" height="2.222" rx="0.488" transform="translate(525.38 383.987) rotate(180)" fill="#3f3d56"/>
      <rect id="Rechteck_11" data-name="Rechteck 11" width="3.704" height="2.222" rx="0.488" transform="translate(517.972 383.987) rotate(180)" fill="#3f3d56"/>
      <rect id="Rechteck_12" data-name="Rechteck 12" width="3.704" height="2.222" rx="0.488" transform="translate(510.564 383.987) rotate(180)" fill="#3f3d56"/>
      <rect id="Rechteck_13" data-name="Rechteck 13" width="3.704" height="2.222" rx="0.488" transform="translate(503.157 383.987) rotate(180)" fill="#3f3d56"/>
      <rect id="Rechteck_14" data-name="Rechteck 14" width="3.704" height="2.222" rx="0.488" transform="translate(495.749 383.987) rotate(180)" fill="#3f3d56"/>
      <rect id="Rechteck_15" data-name="Rechteck 15" width="3.704" height="2.222" rx="0.488" transform="translate(488.341 383.987) rotate(180)" fill="#3f3d56"/>
      <rect id="Rechteck_16" data-name="Rechteck 16" width="3.704" height="2.222" rx="0.488" transform="translate(480.934 383.987) rotate(180)" fill="#3f3d56"/>
      <rect id="Rechteck_17" data-name="Rechteck 17" width="3.704" height="2.222" rx="0.488" transform="translate(473.526 383.987) rotate(180)" fill="#3f3d56"/>
      <rect id="Rechteck_18" data-name="Rechteck 18" width="3.704" height="2.222" rx="0.488" transform="translate(466.118 383.987) rotate(180)" fill="#3f3d56"/>
      <rect id="Rechteck_19" data-name="Rechteck 19" width="3.704" height="2.222" rx="0.488" transform="translate(458.711 383.987) rotate(180)" fill="#3f3d56"/>
      <rect id="Rechteck_20" data-name="Rechteck 20" width="3.704" height="2.222" rx="0.488" transform="translate(451.303 383.987) rotate(180)" fill="#3f3d56"/>
      <rect id="Rechteck_21" data-name="Rechteck 21" width="3.704" height="2.222" rx="0.488" transform="translate(443.895 383.987) rotate(180)" fill="#3f3d56"/>
      <rect id="Rechteck_22" data-name="Rechteck 22" width="3.704" height="2.222" rx="0.488" transform="translate(555.098 387.691) rotate(180)" fill="#3f3d56"/>
      <rect id="Rechteck_23" data-name="Rechteck 23" width="3.704" height="2.222" rx="0.488" transform="translate(547.69 387.691) rotate(180)" fill="#3f3d56"/>
      <rect id="Rechteck_24" data-name="Rechteck 24" width="3.704" height="2.222" rx="0.488" transform="translate(540.283 387.691) rotate(180)" fill="#3f3d56"/>
      <rect id="Rechteck_25" data-name="Rechteck 25" width="3.704" height="2.222" rx="0.488" transform="translate(532.875 387.691) rotate(180)" fill="#3f3d56"/>
      <rect id="Rechteck_26" data-name="Rechteck 26" width="3.704" height="2.222" rx="0.488" transform="translate(525.467 387.691) rotate(180)" fill="#3f3d56"/>
      <rect id="Rechteck_27" data-name="Rechteck 27" width="3.704" height="2.222" rx="0.488" transform="translate(518.06 387.691) rotate(180)" fill="#3f3d56"/>
      <rect id="Rechteck_28" data-name="Rechteck 28" width="3.704" height="2.222" rx="0.488" transform="translate(510.652 387.691) rotate(180)" fill="#3f3d56"/>
      <rect id="Rechteck_29" data-name="Rechteck 29" width="3.704" height="2.222" rx="0.488" transform="translate(503.244 387.691) rotate(180)" fill="#3f3d56"/>
      <rect id="Rechteck_30" data-name="Rechteck 30" width="3.704" height="2.222" rx="0.488" transform="translate(495.837 387.691) rotate(180)" fill="#3f3d56"/>
      <rect id="Rechteck_31" data-name="Rechteck 31" width="3.704" height="2.222" rx="0.488" transform="translate(488.429 387.691) rotate(180)" fill="#3f3d56"/>
      <rect id="Rechteck_32" data-name="Rechteck 32" width="3.704" height="2.222" rx="0.488" transform="translate(481.021 387.691) rotate(180)" fill="#3f3d56"/>
      <rect id="Rechteck_33" data-name="Rechteck 33" width="3.704" height="2.222" rx="0.488" transform="translate(473.613 387.691) rotate(180)" fill="#3f3d56"/>
      <rect id="Rechteck_34" data-name="Rechteck 34" width="3.704" height="2.222" rx="0.488" transform="translate(466.206 387.691) rotate(180)" fill="#3f3d56"/>
      <rect id="Rechteck_35" data-name="Rechteck 35" width="3.704" height="2.222" rx="0.488" transform="translate(458.798 387.691) rotate(180)" fill="#3f3d56"/>
      <rect id="Rechteck_36" data-name="Rechteck 36" width="3.704" height="2.222" rx="0.488" transform="translate(451.39 387.691) rotate(180)" fill="#3f3d56"/>
      <rect id="Rechteck_37" data-name="Rechteck 37" width="3.704" height="2.222" rx="0.488" transform="translate(443.983 387.691) rotate(180)" fill="#3f3d56"/>
      <rect id="Rechteck_38" data-name="Rechteck 38" width="29.631" height="2.222" rx="0.488" transform="translate(519.541 392.136) rotate(180)" fill="#3f3d56"/>
      <rect id="Rechteck_39" data-name="Rechteck 39" width="5.276" height="2.761" rx="1.38" transform="translate(455.969 317.229)" fill="#fff"/>
      <rect id="Rechteck_40" data-name="Rechteck 40" width="5.276" height="2.761" rx="1.38" transform="translate(484.729 317.229)" fill="#fff"/>
      <rect id="Rechteck_41" data-name="Rechteck 41" width="5.276" height="2.761" rx="1.38" transform="translate(492.877 317.229)" fill="#fff"/>
      <rect id="Rechteck_42" data-name="Rechteck 42" width="18.39" height="2.761" rx="1.38" transform="translate(463.791 316.999)" fill="#fff"/>
      <rect id="Rechteck_43" data-name="Rechteck 43" width="18.39" height="2.761" rx="1.38" transform="translate(502.138 316.999)" fill="#fff"/>
      <rect id="Rechteck_44" data-name="Rechteck 44" width="5.276" height="2.761" rx="1.38" transform="translate(463.638 323.46)" fill="#fff"/>
      <rect id="Rechteck_45" data-name="Rechteck 45" width="5.276" height="2.761" rx="1.38" transform="translate(492.398 323.46)" fill="#fff"/>
      <rect id="Rechteck_46" data-name="Rechteck 46" width="5.276" height="2.761" rx="1.38" transform="translate(500.547 323.46)" fill="#fff"/>
      <rect id="Rechteck_47" data-name="Rechteck 47" width="18.39" height="2.761" rx="1.38" transform="translate(471.461 323.229)" fill="#fff"/>
      <rect id="Rechteck_48" data-name="Rechteck 48" width="18.39" height="2.761" rx="1.38" transform="translate(509.807 323.229)" fill="#fff"/>
      <rect id="Rechteck_49" data-name="Rechteck 49" width="5.276" height="2.761" rx="1.38" transform="translate(471.308 329.691)" fill="#fff"/>
      <rect id="Rechteck_50" data-name="Rechteck 50" width="5.276" height="2.761" rx="1.38" transform="translate(500.068 329.691)" fill="#fff"/>
      <rect id="Rechteck_51" data-name="Rechteck 51" width="5.276" height="2.761" rx="1.38" transform="translate(508.216 329.691)" fill="#fff"/>
      <rect id="Rechteck_52" data-name="Rechteck 52" width="18.39" height="2.761" rx="1.38" transform="translate(479.13 329.461)" fill="#fff"/>
      <rect id="Rechteck_53" data-name="Rechteck 53" width="18.39" height="2.761" rx="1.38" transform="translate(517.477 329.461)" fill="#fff"/>
      <rect id="Rechteck_54" data-name="Rechteck 54" width="5.276" height="2.761" rx="1.38" transform="translate(478.976 335.923)" fill="#fff"/>
      <rect id="Rechteck_55" data-name="Rechteck 55" width="5.276" height="2.761" rx="1.38" transform="translate(507.736 335.923)" fill="#fff"/>
      <rect id="Rechteck_56" data-name="Rechteck 56" width="5.276" height="2.761" rx="1.38" transform="translate(515.885 335.923)" fill="#fff"/>
      <rect id="Rechteck_57" data-name="Rechteck 57" width="18.39" height="2.761" rx="1.38" transform="translate(486.8 335.693)" fill="#fff"/>
      <rect id="Rechteck_58" data-name="Rechteck 58" width="5.276" height="2.761" rx="1.38" transform="translate(484.729 360.701)" fill="#fff"/>
      <rect id="Rechteck_59" data-name="Rechteck 59" width="5.276" height="2.761" rx="1.38" transform="translate(492.877 360.701)" fill="#fff"/>
      <rect id="Rechteck_60" data-name="Rechteck 60" width="18.39" height="2.761" rx="1.38" transform="translate(502.138 360.931)" fill="#fff"/>
      <rect id="Rechteck_61" data-name="Rechteck 61" width="5.276" height="2.761" rx="1.38" transform="translate(455.969 360.701)" fill="#fff"/>
      <rect id="Rechteck_62" data-name="Rechteck 62" width="18.39" height="2.761" rx="1.38" transform="translate(463.791 360.931)" fill="#fff"/>
      <rect id="Rechteck_63" data-name="Rechteck 63" width="5.276" height="2.761" rx="1.38" transform="translate(463.638 354.47)" fill="#fff"/>
      <rect id="Rechteck_64" data-name="Rechteck 64" width="5.276" height="2.761" rx="1.38" transform="translate(492.398 354.47)" fill="#fff"/>
      <rect id="Rechteck_65" data-name="Rechteck 65" width="5.276" height="2.761" rx="1.38" transform="translate(500.547 354.47)" fill="#fff"/>
      <rect id="Rechteck_66" data-name="Rechteck 66" width="18.39" height="2.761" rx="1.38" transform="translate(471.461 354.7)" fill="#fff"/>
      <rect id="Rechteck_67" data-name="Rechteck 67" width="5.276" height="2.761" rx="1.38" transform="translate(471.308 348.238)" fill="#fff"/>
      <rect id="Rechteck_68" data-name="Rechteck 68" width="5.276" height="2.761" rx="1.38" transform="translate(500.068 348.238)" fill="#fff"/>
      <rect id="Rechteck_69" data-name="Rechteck 69" width="5.276" height="2.761" rx="1.38" transform="translate(508.216 348.238)" fill="#fff"/>
      <rect id="Rechteck_70" data-name="Rechteck 70" width="18.39" height="2.761" rx="1.38" transform="translate(479.13 348.468)" fill="#fff"/>
      <rect id="Rechteck_71" data-name="Rechteck 71" width="5.276" height="2.761" rx="1.38" transform="translate(478.976 342.007)" fill="#fff"/>
      <rect id="Rechteck_72" data-name="Rechteck 72" width="5.276" height="2.761" rx="1.38" transform="translate(507.736 342.007)" fill="#fff"/>
      <rect id="Rechteck_73" data-name="Rechteck 73" width="5.276" height="2.761" rx="1.38" transform="translate(515.885 342.007)" fill="#fff"/>
      <rect id="Rechteck_74" data-name="Rechteck 74" width="18.39" height="2.761" rx="1.38" transform="translate(486.8 342.237)" fill="#fff"/>
      <path id="Pfad_63" data-name="Pfad 63" d="M709.962,645.1l-11.8-18.66L735.211,596.9l15.294-16.944a16.944,16.944,0,0,1,28.667,6.038h0a16.944,16.944,0,0,1-10.231,21.215l-24.184,8.91Z" transform="translate(-263.468 -211.368)" fill="#ffb6b6"/>
      <path id="Pfad_64" data-name="Pfad 64" d="M398.28,500.952v90.693h63.536V500.952a3.049,3.049,0,0,0-2.149-2.918,2.808,2.808,0,0,0-.911-.141H401.349a3.063,3.063,0,0,0-3.069,3.06Zm24.8,31.163a6.783,6.783,0,1,1,13.565,0v10.523a6.783,6.783,0,1,1-13.565,0Z" transform="translate(-228.77 -202.52)" fill="#2f2e41"/>
      <path id="Pfad_65" data-name="Pfad 65" d="M398.06,600.632v8.746a1.721,1.721,0,0,0,1.707,1.716h60.512a1.715,1.715,0,0,0,1.707-1.716v-8.746Z" transform="translate(-228.744 -214.407)" fill="#3f3d56"/>
      <path id="Pfad_66" data-name="Pfad 66" d="M285.25,345.792V511.384a7.965,7.965,0,0,0,7.959,7.959H538.6a7.965,7.965,0,0,0,7.959-7.959V345.792a7.969,7.969,0,0,0-7.959-7.95H293.209a7.969,7.969,0,0,0-7.959,7.95Z" transform="translate(-215.692 -184.001)" fill="#3f3d56"/>
      <path id="Pfad_67" data-name="Pfad 67" d="M291.76,348.6v161.49a4.261,4.261,0,0,0,4.253,4.253h241.3a4.261,4.261,0,0,0,4.253-4.253V348.6a4.263,4.263,0,0,0-4.253-4.262h-241.3a4.263,4.263,0,0,0-4.253,4.262Z" transform="translate(-216.445 -184.753)" fill="#fff"/>
      <path id="Pfad_68" data-name="Pfad 68" d="M342.322,609.845a2.607,2.607,0,0,0,2.052.982H487.93a2.642,2.642,0,0,0,2.582-3.183l-2.228-10.585a2.646,2.646,0,0,0-1.645-1.919,2.56,2.56,0,0,0-.937-.177H346.593a2.559,2.559,0,0,0-.937.177,2.646,2.646,0,0,0-1.645,1.919l-2.228,10.585A2.64,2.64,0,0,0,342.322,609.845Z" transform="translate(-222.226 -213.751)" fill="#2f2e41"/>
      <path id="Pfad_69" data-name="Pfad 69" d="M530.925,369.264H305.143a.9.9,0,1,1,0-1.8H530.925a.9.9,0,1,1,0,1.8Z" transform="translate(-217.889 -187.429)" fill="#3f3d56"/>
      <ellipse id="Ellipse_12" data-name="Ellipse 12" cx="5.262" cy="5.379" rx="5.262" ry="5.379" transform="translate(97.361 164.697)" fill="#3f3d56"/>
      <ellipse id="Ellipse_13" data-name="Ellipse 13" cx="5.262" cy="5.379" rx="5.262" ry="5.379" transform="translate(115.539 164.697)" fill="#3f3d56"/>
      <ellipse id="Ellipse_14" data-name="Ellipse 14" cx="5.262" cy="5.379" rx="5.262" ry="5.379" transform="translate(133.716 164.697)" fill="#3f3d56"/>
      <path id="Pfad_70" data-name="Pfad 70" d="M546.392,351.622H533.481a.977.977,0,0,0,0,1.954h12.911a.977.977,0,1,0,0-1.954Z" transform="translate(-244.303 -185.595)" fill="#3f3d56"/>
      <path id="Pfad_71" data-name="Pfad 71" d="M546.389,355.772H533.478a.977.977,0,1,0,0,1.955h12.911a.977.977,0,1,0,0-1.954Z" transform="translate(-244.3 -186.075)" fill="#3f3d56"/>
      <path id="Pfad_72" data-name="Pfad 72" d="M546.392,359.922H533.481a.977.977,0,0,0,0,1.954h12.911a.977.977,0,1,0,0-1.954Z" transform="translate(-244.303 -186.555)" fill="#3f3d56"/>
      <path id="Pfad_73" data-name="Pfad 73" d="M899.329,597.86a5.674,5.674,0,0,0,5.468,3.83l23.427-.6a5.6,5.6,0,0,0,5.289-4.118l3.315-35.449a8.662,8.662,0,0,0,3.748.77,8.543,8.543,0,0,0-.429-17.082,7.236,7.236,0,0,0-1.535.16,5.79,5.79,0,0,0-4.31-1.86l-36.035.931a5.174,5.174,0,0,0-.889.11,5.628,5.628,0,0,0-4.309,7.308Zm38.178-38.747,2.359-8.447a5.754,5.754,0,0,0,.018-2.984c.115,0,.216-.055.33-.055a6.111,6.111,0,1,1,.286,12.218,5.751,5.751,0,0,1-2.993-.731Z" transform="translate(-285.987 -207.798)" fill="#2f2e41"/>
      <path id="Pfad_74" data-name="Pfad 74" d="M897.978,544.55c.768,4.39,9.4,7.476,19.778,6.939,9.544-.44,17.348-3.791,18.777-7.763a5.331,5.331,0,0,0-1.631-.217l-36.035.93A5.18,5.18,0,0,0,897.978,544.55Z" transform="translate(-286.589 -207.798)" fill="#3f3d56"/>
      <path id="Pfad_75" data-name="Pfad 75" d="M922.4,581.941a.439.439,0,0,0,.133-.059l5.088-3.33a.442.442,0,0,0,0-.74l-5.288-3.463a.442.442,0,0,0-.485.739l4.723,3.093-4.522,2.961a.442.442,0,0,0,.351.8Z" transform="translate(-289.327 -211.358)" fill="#29c9e1"/>
      <path id="Pfad_76" data-name="Pfad 76" d="M912.646,582.36a.442.442,0,0,0,.112-.812l-4.689-2.689,4.533-3.367a.442.442,0,0,0-.527-.709L907,578.553a.442.442,0,0,0,.043.738l5.275,3.024A.442.442,0,0,0,912.646,582.36Z" transform="translate(-287.612 -211.406)" fill="#29c9e1"/>
      <path id="Pfad_77" data-name="Pfad 77" d="M920.906,584.579a.424.424,0,0,0,.121-.051.442.442,0,0,0,.148-.608l-7.212-11.857a.442.442,0,0,0-.756.46l7.212,11.857A.442.442,0,0,0,920.906,584.579Z" transform="translate(-288.343 -211.077)" fill="#29c9e1"/>
      <rect id="Rechteck_75" data-name="Rechteck 75" width="44.851" height="9.591" rx="3.264" transform="translate(185.158 230.648)" fill="#29c9e1"/>
      <rect id="Rechteck_76" data-name="Rechteck 76" width="90.407" height="9.591" rx="3.264" transform="translate(162.379 249.83)" fill="#e6e6e6"/>
      <rect id="Rechteck_77" data-name="Rechteck 77" width="90.407" height="9.591" rx="3.264" transform="translate(162.379 269.011)" fill="#e6e6e6"/>
      <path id="Pfad_78" data-name="Pfad 78" d="M497.3,534.289l.192.605.01.02,5.77,17.543,6.638,20.216,12.489,37.99.121,5.9v.02l.928,47.473-2.572,6.436,2.9,10.552s-1.332-15.95-8.474-6.79c-4.045,5.205-8.776,10.532-12.66,15.525q8.489,3.435,17.25,6.214c1.261.4,2.532.787,3.8,1.17l.817.242a235.984,235.984,0,0,0,59.558,9.573c1.049.03,2.078.05,3.077.071.353.01.7.02,1.039.02,1.13.01,2.25.02,3.379.02q3.42,0,6.809-.1a235.975,235.975,0,0,0,49.6-6.708c-.111-6.708-.414-14.546-.847-22.919-.2-4.106-4.731-8.554-5-12.852-.192-3.228,3.874-6.264,3.662-9.543-1.372-20.186-3.087-12.437-4.358-26.731q-.2-2.1-.363-4.025c-.817-9.18-1.382-14.92-1.382-14.92l5.427-34.208,8.524-53.707-.656-1.079-.736-.363L607.277,497.68l-2.441-6.254a9.709,9.709,0,0,0-8.968-6.143l-29.618-.121a9.666,9.666,0,0,0-7.879,4l-8.02,11.107Z" transform="translate(-240.227 -201.047)" fill="#3f3d56"/>
      <path id="Pfad_79" data-name="Pfad 79" d="M525.178,606.713l-6.709,14.355-4.58,9.805-7.879,41.249-3.944,4.186-3.379-14.82-35.37,7.853c-1.16-6.446-.311.218-1.027-6.853.2-.2.414-.4.625-.605.565-.525,1.039-1.019,1.029-1.493-.4-24.392.807-65.9,10.915-91.052a53.1,53.1,0,0,1,6.214-11.591c.2-.272.393-.545.585-.817,4.66-6.527,7.606-12.953,11.782-17.522v-.01a.47.47,0,0,0,.071-.071.139.139,0,0,0,.04-.03l28.689-15.212,1.231,34.581.878,24.856Z" transform="translate(-236.176 -205.55)" fill="#3f3d56"/>
      <path id="Pfad_80" data-name="Pfad 80" d="M650.391,610.836l8.38,17.929,2.925,6.244,7.876,41.245,3.931,4.176,3.387-14.816,1.592-.326,28.7-5.945,8.366,26.57a15.9,15.9,0,0,0-2.884-19.9c-.571-.517-1.047-1.02-1.034-1.5.476-28.689-1.279-81.075-17.126-102.636-5.033-6.842-8.053-13.658-12.447-18.419-.014-.014-.014-.027-.027-.027L671.34,525.925l-.653-1.075-.735-.367Z" transform="translate(-257.941 -205.596)" fill="#3f3d56"/>
      <circle id="Ellipse_5" data-name="Ellipse 5" cx="39.403" cy="39.403" r="39.403" transform="translate(302.286 196.881)" fill="#ffb6b6"/>
      <path id="Pfad_81" data-name="Pfad 81" d="M640.445,395.945a3.325,3.325,0,0,0-2.379-1.052l.592-1.645a3.12,3.12,0,0,0-3.5-4.156l-2.158.416.2-1.441a3.125,3.125,0,0,0-4.183-3.378,3.33,3.33,0,0,1-2.865-.2,3.4,3.4,0,0,1-1.7-2.308l-.752-3.626-.08-.195c-3.661-6.1-10.7-10.541-19.313-12.168-7.667-1.459-15.528-.716-23.107-.018-3.007.283-6.4.6-9.232,2.335-2.405,1.486-4.439,4.457-4.023,7.455-7.472-2.29-15.484,2.281-19.454,8.047-4.7,6.862-5.474,15.457-5.6,22.178-.336,15.9,2.945,28.908,9.727,38.67.5.707.619,2.184,1.6,2.679l-.2-.327c1.1.548,2.211,1.433,1.8,2.379-1.194,2.724,6.738,8.746,12.327,10.735,10.2,3.634,23.752,3.325,33.285,2.016l.336-2.255c3.44-.469,5.863-1.362,6.544-2.759,1.2-1.026,2.228-1.945,3.122-2.794l.009-.009c.018-.018.053-.044.071-.062,4.306-4.13,5.306-6.482,5.757-10.063.433-3.511-.336-7.074-1.123-10.284,16.572,2.564-6.526-17.65,8.914-21.559a4.8,4.8,0,0,1,.539-.133c.451-.106.9-.212,1.335-.336a23.39,23.39,0,0,0,5.942-2.538c4.315-2.626,5.739-6.11,7.968-10.037a3.03,3.03,0,0,0-.4-3.564Z" transform="translate(-245.501 -187.183)" fill="#2f2e41"/>
      <path id="Pfad_82" data-name="Pfad 82" d="M716.632,617.871c-.009,1.547-.027,3.714-.1,6.393q-.013.557-.027,1.141c-.115,4.926-.23,9.055-.416,13.645-.009.318-.018.628-.035.946-.248,6.4-.637,13.857-1.309,25.662-1.247,21.807-3.422,3-5.606,10.647-.106.38-.221.831-.327,1.362a24.684,24.684,0,0,1-1.662,5.6c-1.158.69-2.352,1.353-3.528,2.016-3.352,1.866-6.756,3.661-10.187,5.368-1.928.955-3.864,1.892-5.81,2.794-.309.141-.61.283-.911.416a239.562,239.562,0,0,1-30.729,11.726c-2.052.619-4.094,1.22-6.163,1.778-2.158.6-4.315,1.167-6.5,1.7a236.01,236.01,0,0,1-49.6,6.712c-2.255.071-4.528.1-6.809.1-1.132,0-2.246-.009-3.378-.018-.345,0-.69-.009-1.035-.018-1-.027-2.034-.044-3.077-.071a235.811,235.811,0,0,1-59.557-9.577l-.822-.239c-1.273-.389-2.538-.769-3.8-1.176q-8.755-2.772-17.253-6.208-6.486-2.613-12.822-5.606a.3.3,0,0,1-.106-.053c-.884-.407-1.777-.831-2.662-1.265-.115-.062-.239-.124-.363-.186q-4.948-2.414-9.789-5.058c-2.715-6.234-6.535-7.428-8.9-12.911a22.879,22.879,0,0,1-1.486-5.076c0-.018-.009-.035-.009-.062.248,3.29-1.052-5.836-.009-.035-.009-.106-.018-.221-.027-.354-.027-.318-.062-.707-.115-1.194-3.033-29.615-2.839-63.483-4.156-91.392q-.133-2.706-.274-5.182c-.027-.548-.062-1.088-.1-1.618.062-.159.133-.327.212-.486a.88.88,0,0,1,.062-.133,1.453,1.453,0,0,1,.088-.159c.018-.027.044-.062.062-.088a.791.791,0,0,1,.044-.088c.08-.124.168-.256.265-.38.044-.053.08-.1.124-.141a.716.716,0,0,1,.106-.124.56.56,0,0,1,.1-.115c.035-.035.071-.08.115-.124a.267.267,0,0,1,.071-.071,1.793,1.793,0,0,1,.23-.221,8.5,8.5,0,0,1,1.008-.8c.124-.08.256-.159.38-.248a16.916,16.916,0,0,1,2.8-1.344c.336-.124.672-.239,1.035-.362.133-.035.256-.08.389-.124.195-.062.389-.124.592-.168,1.008-.3,2.1-.557,3.272-.8.141-.027.292-.053.442-.088.212-.044.433-.08.654-.115.3-.053.61-.106.92-.159,2.626-.416,5.606-.725,8.9-.929l.928-.053,1.1-.053c.31-.018.628-.027.946-.035s.628-.027.955-.035c.893-.027,1.813-.053,2.75-.071,2.671-.053,5.483-.035,8.436.027,1.371.035,2.768.071,4.2.133.1,0,.186.009.274.009,1.247.044,2.5.1,3.794.168.9.044,1.813.088,2.724.141.858.053,1.724.106,2.6.168.681.035,1.362.088,2.052.133.584.044,1.167.088,1.751.124l.8.053c.433.035.867.062,1.309.106l2.936.239c.982.088,1.981.177,2.98.265s2.007.186,3.015.283l.3.027c.92.1,1.839.186,2.768.283.212.018.433.035.646.062.885.089,1.788.193,2.681.288l.822.088c.7.076,1.39.142,2.094.225.928.106,1.875.2,2.794.327.716.08,1.433.159,2.149.248,1.123.133,2.264.274,3.4.424.433.053.867.106,1.3.168,3.254.407,6.544.858,9.886,1.326,5.067.716,10.214,1.494,15.4,2.335s10.411,1.727,15.661,2.662c1.326.239,2.653.478,3.988.725l1.8.345c1.026.186,2.052.38,3.077.575s2.052.389,3.077.592l3.67.716c8.038,1.592,16.032,3.29,23.832,5.067,1.282.292,2.564.592,3.838.884q3.82.889,7.57,1.8c.69.159,1.371.327,2.052.5,1.7.424,3.4.849,5.067,1.282l.292.08c1.229.3,2.432.61,3.634.929q4.258,1.114,8.374,2.255,2.732.756,5.4,1.53c2.662.769,5.27,1.548,7.808,2.335.628.195,1.256.389,1.875.575,1.857.575,3.688,1.158,5.465,1.742,1.415.46,2.794.928,4.156,1.4s2.7.937,4.006,1.406c.84.3,1.671.619,2.5.92,1.194.442,2.37.884,3.519,1.326.354.133.7.274,1.043.407.221.1.433.177.646.265.416.168.84.327,1.247.5s.822.327,1.229.5c.4.159.8.327,1.194.5s.787.327,1.176.5c.327.133.646.274.955.416.628.274,1.256.548,1.866.831.3.141.6.274.9.416l.69.318c.1.053.195.1.292.141.221.106.451.221.672.327.513.239,1.017.5,1.512.734.663.336,1.309.672,1.928,1s1.238.672,1.822,1c.1.053.186.106.283.159.133.071.265.15.4.221.451.256.884.522,1.318.778.849.522,1.654,1.035,2.405,1.548.168.115.327.23.5.336.557.4,1.088.787,1.583,1.185,0,.009,0,.009.009.009.168.124.327.256.486.38.133.124.274.23.407.354.46.4.884.778,1.273,1.167a5.018,5.018,0,0,1,.371.38,1.069,1.069,0,0,1,.142.141c.177.177.336.354.486.531a.489.489,0,0,1,.062.08c.212.248.407.5.593.743.088.124.186.248.265.371.106.15.212.31.3.46.08.124.15.256.221.38a6.419,6.419,0,0,1,.477,1,4.632,4.632,0,0,1,.239.725,5.186,5.186,0,0,1,.15.716Z" transform="translate(-235.584 -209.825)" fill="#2f2e41"/>
      <path id="Pfad_83" data-name="Pfad 83" d="M716.631,617.872c-.009,1.547-.027,3.714-.1,6.393-.009.371-.027.752-.035,1.141-.088,3.758-.221,8.4-.407,13.645-.009.318-.018.628-.035.946-.248,6.4-.637,13.857-1.309,25.662-1.247,21.807-3.422,3-5.606,10.647-6.066-3.732-12.716-7.64-19.826-11.655q-1.923-1.088-3.882-2.184c-14.219-7.932-30.1-16.245-46.682-24.477-.654-.327-1.318-.654-1.972-.973-37.98-18.773-79.436-37.034-113.021-49.22-6.482-2.352-12.672-4.474-18.491-6.34-12.256-3.917-22.85-6.659-31-7.844-8.489-1.238-14.352-.8-16.722,1.76q-.133-2.706-.274-5.182-.053-.822-.106-1.618c.055-.146.125-.284.194-.425.01-.02.017-.042.027-.062a.882.882,0,0,1,.062-.133,1.441,1.441,0,0,1,.089-.159.939.939,0,0,1,.106-.177c.08-.124.168-.256.265-.38a3.077,3.077,0,0,1,.23-.265.565.565,0,0,1,.1-.115c.035-.035.071-.08.115-.124a.265.265,0,0,1,.071-.071,1.794,1.794,0,0,1,.23-.221,8.516,8.516,0,0,1,1.008-.8c.124-.08.256-.159.38-.248a16.919,16.919,0,0,1,2.8-1.344c.336-.124.672-.239,1.035-.363.133-.035.256-.08.389-.124.195-.062.389-.124.592-.168,1.008-.3,2.1-.557,3.272-.8.354-.071.725-.141,1.1-.2.3-.053.61-.106.92-.159,2.626-.416,5.606-.725,8.9-.929l.928-.053,1.1-.053c.309-.018.628-.026.946-.035s.628-.027.955-.035c.893-.027,1.813-.053,2.75-.071,2.671-.044,5.483-.026,8.436.035,1.371.027,2.768.071,4.2.133.088,0,.186.009.274.009,1.247.035,2.511.1,3.794.159.9.044,1.813.088,2.724.141.858.053,1.724.106,2.6.168.681.035,1.362.088,2.052.133.584.044,1.167.088,1.751.124l2.1.159,2.936.239c.982.088,1.981.177,2.98.265s2.007.186,3.015.283l.3.026c.92.1,1.839.186,2.768.283q7.72.783,15.891,1.831,4.881.623,9.886,1.335c5.067.716,10.214,1.494,15.4,2.326s10.411,1.727,15.661,2.662c1.326.239,2.653.477,3.988.725q2.441.451,4.881.92c1.026.195,2.052.389,3.077.592l3.67.716c8.038,1.592,16.032,3.289,23.832,5.067,1.282.292,2.564.592,3.838.884q3.82.889,7.57,1.8c.69.168,1.371.336,2.052.5q2.56.637,5.067,1.273v.009c.1.018.195.044.292.071,1.22.309,2.432.619,3.634.937q4.258,1.114,8.374,2.246c1.822.513,3.626,1.017,5.4,1.53,2.662.778,5.27,1.556,7.808,2.335.628.195,1.256.389,1.875.575q2.786.875,5.465,1.742c1.415.46,2.794.928,4.156,1.4s2.7.937,4.006,1.406c.849.3,1.68.61,2.5.911,1.2.442,2.37.884,3.519,1.335.354.133.7.274,1.043.407.646.248,1.273.5,1.892.76.416.159.822.327,1.229.5.4.159.8.327,1.194.5s.787.327,1.176.5c.327.133.646.274.955.416.628.274,1.256.548,1.866.831.3.141.6.274.9.416l.69.318c.1.053.195.1.292.141.752.354,1.477.707,2.184,1.061.663.336,1.309.672,1.928,1,.734.389,1.433.769,2.1,1.158.133.071.265.15.4.221.451.256.884.522,1.318.778.849.522,1.654,1.035,2.405,1.548s1.433,1.017,2.078,1.521c0,.009,0,.009.009.009.309.248.61.5.893.734.46.4.884.778,1.273,1.167a5.019,5.019,0,0,1,.371.38,1.064,1.064,0,0,1,.141.141c.186.2.371.407.548.61.212.248.407.5.592.743.088.124.186.248.265.371.106.15.212.31.3.46.08.124.15.256.221.38a6.422,6.422,0,0,1,.477,1,5.341,5.341,0,0,1,.239.725,5.166,5.166,0,0,1,.15.716Z" transform="translate(-235.583 -209.826)" opacity="0.2"/>
    </g>
  </g>
</svg>
