<svg xmlns="http://www.w3.org/2000/svg" xmlns:xlink="http://www.w3.org/1999/xlink" width="1974.972" height="1250.978" viewBox="0 0 1974.972 1250.978">
  <defs>
    <linearGradient id="linear-gradient" x1="0.171" y1="0.05" x2="0.634" y2="0.981" gradientUnits="objectBoundingBox">
      <stop offset="0" stop-color="#74ebd5"/>
      <stop offset="1" stop-color="#8bc6ec"/>
    </linearGradient>
    <linearGradient id="linear-gradient-2" x1="0.683" y1="0.291" x2="0.18" y2="0.778" gradientUnits="objectBoundingBox">
      <stop offset="0" stop-color="#8bc6ec"/>
      <stop offset="1" stop-color="#71fae1"/>
    </linearGradient>
    <linearGradient id="linear-gradient-3" x1="0.886" y1="0.086" x2="0.106" y2="0.839" gradientUnits="objectBoundingBox">
      <stop offset="0" stop-color="#e7fbf2"/>
      <stop offset="1" stop-color="#b4bec1"/>
    </linearGradient>
  </defs>
  <g id="Graphhic" transform="translate(-1702.104 -524.236)">
    <path id="Pfad_87" data-name="Pfad 87" d="M2497.615,1597.733c-81.376,127.53-689.879,31.579-561.134-238.057s-108.1-346.154-26.721-473.684,205.263-214.372,352.227-36.437c25.5,30.868,336.438,146.356,315.79,269.635s-363.664,205.159-398.381,223.482c-87.449,46.154,70.445,116.6,70.445,116.6S2550.266,1515.221,2497.615,1597.733Z" transform="translate(1272.105 -1248.533) rotate(39)" opacity="0.8" fill="url(#linear-gradient)"/>
    <path id="Pfad_88" data-name="Pfad 88" d="M-12628.684-972.275c-253.566-104.787,585.294-593.119,577.892-393.345s-98.607,150.788,154.959,255.575,265.293,167.542,82.079,201.985S-12375.118-867.488-12628.684-972.275Z" transform="matrix(0.695, 0.719, -0.719, 0.695, 10780.494, 10798.83)" opacity="0.8" fill="url(#linear-gradient-2)"/>
    <path id="Pfad_11" data-name="Pfad 11" d="M2422.02,700.369c216.088-127.342,529.482-122.637,663.643,46.406s42.15,371.213-173.938,498.555-471.8-34.469-521.426-91.332S2205.933,827.711,2422.02,700.369Z" transform="matrix(0.998, -0.07, 0.07, 0.998, -183.712, 371.342)" opacity="0.5" fill="url(#linear-gradient-3)"/>
    <g id="undraw_edit_photo_re_ton4" transform="translate(2284.555 861.241)">
      <path id="Pfad_33" data-name="Pfad 33" d="M580.188,404.242V161.256a3.992,3.992,0,0,0-3.988-3.988H227.667a3.992,3.992,0,0,0-3.988,3.988V404.242a3.992,3.992,0,0,0,3.988,3.988H576.2A3.992,3.992,0,0,0,580.188,404.242Z" transform="translate(42.779 -157.268)" fill="rgba(255,255,255,0)"/>
      <path id="Pfad_34" data-name="Pfad 34" d="M580.188,404.242V161.256a3.992,3.992,0,0,0-3.988-3.988H227.667a3.992,3.992,0,0,0-3.988,3.988V404.242a3.992,3.992,0,0,0,3.988,3.988H576.2A3.992,3.992,0,0,0,580.188,404.242ZM576.2,158.863a2.4,2.4,0,0,1,2.393,2.393V404.242a2.4,2.4,0,0,1-2.393,2.393H227.667a2.4,2.4,0,0,1-2.393-2.393V161.256a2.4,2.4,0,0,1,2.393-2.393Z" transform="translate(42.779 -157.268)" fill="#707070"/>
      <path id="feda1070-6288-4949-b833-330f4749d65f" d="M305.913,187.137a3.162,3.162,0,1,0,0,6.323h79.269a3.162,3.162,0,0,0,.1-6.323H305.913Z" transform="translate(169.123 -162.414)" fill="#707070"/>
      <path id="Pfad_35" data-name="Pfad 35" d="M283.662,186.036a.622.622,0,0,0,0,.88h0l2.671,2.671h-6.585a.622.622,0,1,0,0,1.244h6.588l-2.671,2.671a.622.622,0,0,0,.879.881h0l3.733-3.733a.622.622,0,0,0,0-.88l-3.733-3.733a.622.622,0,0,0-.88,0Z" transform="translate(288.619 -162.193)" fill="#e6e6e6"/>
      <path id="Pfad_36" data-name="Pfad 36" d="M423.473,186.036a.622.622,0,0,1,0,.88h0l-2.671,2.671h6.586a.622.622,0,0,1,0,1.244H420.8l2.671,2.671a.622.622,0,0,1-.879.881h0l-3.733-3.733a.622.622,0,0,1,0-.88l3.733-3.733a.622.622,0,0,1,.88,0Z" transform="translate(33.554 -162.193)" fill="#707070"/>
      <path id="feda1070-6288-4949-b833-330f4749d65f-2" data-name="feda1070-6288-4949-b833-330f4749d65f" d="M305.913,411.822a3.162,3.162,0,1,0,0,6.323h79.269a3.162,3.162,0,1,0,.1-6.323H305.913Z" transform="translate(169.123 -201.126)" fill="#707070"/>
      <path id="feda1070-6288-4949-b833-330f4749d65f-3" data-name="feda1070-6288-4949-b833-330f4749d65f" d="M513.913,266.807a3.162,3.162,0,1,0,0,6.323h79.269a3.162,3.162,0,1,0,.1-6.323H513.913Z" transform="translate(-211.04 -176.141)" fill="#707070"/>
      <path id="feda1070-6288-4949-b833-330f4749d65f-4" data-name="feda1070-6288-4949-b833-330f4749d65f" d="M513.913,293.807a3.162,3.162,0,1,0,0,6.323h79.269a3.162,3.162,0,1,0,.1-6.323H513.913Z" transform="translate(-211.04 -180.793)" fill="#707070"/>
      <path id="feda1070-6288-4949-b833-330f4749d65f-5" data-name="feda1070-6288-4949-b833-330f4749d65f" d="M513.913,320.807a3.162,3.162,0,1,0,0,6.323h79.269a3.162,3.162,0,1,0,.1-6.323H513.913Z" transform="translate(-211.04 -185.444)" fill="#707070"/>
      <path id="Pfad_37" data-name="Pfad 37" d="M568.949,360.293a10.825,10.825,0,1,0-10.825,10.825A10.825,10.825,0,0,0,568.949,360.293Z" transform="translate(-213.846 -190.383)" fill="#29c9e1"/>
      <path id="Pfad_38" data-name="Pfad 38" d="M563.535,360.367h-3.2v-3.2a1.068,1.068,0,1,0-2.136,0v3.207h-3.2a1.068,1.068,0,0,0,0,2.136h3.2v3.2a1.068,1.068,0,1,0,2.136,0v-3.2h3.2a1.068,1.068,0,0,0,0-2.136Z" transform="translate(-214.984 -191.524)" fill="#fff"/>
      <rect id="Rechteck_3" data-name="Rechteck 3" width="168.145" height="1.063" transform="matrix(-0.773, -0.634, 0.634, -0.773, 572.448, 170.022)" fill="#707070"/>
      <rect id="Rechteck_4" data-name="Rechteck 4" width="1.063" height="168.482" transform="translate(443.083 170.576) rotate(-129.49)" fill="#707070"/>
      <path id="Pfad_39" data-name="Pfad 39" d="M415.718,337.481V234.862A3.726,3.726,0,0,0,412,231.14H285.452a3.726,3.726,0,0,0-3.722,3.722V337.481a3.726,3.726,0,0,0,3.722,3.722H412A3.726,3.726,0,0,0,415.718,337.481ZM412,232.2a2.662,2.662,0,0,1,2.659,2.658V337.481A2.662,2.662,0,0,1,412,340.139H285.452a2.662,2.662,0,0,1-2.659-2.659V234.862a2.662,2.662,0,0,1,2.659-2.658Z" transform="translate(159.2 -169.996)" fill="#3f3d56"/>
      <path id="Pfad_40" data-name="Pfad 40" d="M399.456,359.964V257.346a3.726,3.726,0,0,0-3.722-3.722H269.19a3.726,3.726,0,0,0-3.722,3.722V359.964a3.726,3.726,0,0,0,3.722,3.722H395.734A3.726,3.726,0,0,0,399.456,359.964Z" transform="translate(188.922 -173.87)" fill="#29c9e1"/>
      <path id="Pfad_41" data-name="Pfad 41" d="M393.811,344.836h-64.6a1.316,1.316,0,0,1-.241-.019l30.555-52.925a2.139,2.139,0,0,1,3.724,0l20.506,35.516.982,1.7Z" transform="translate(142.011 -180.276)" fill="#fff"/>
      <path id="Pfad_42" data-name="Pfad 42" d="M127.343,195.187H105.286l10.828-15.727.779-1.133.39-.566.982,1.7Z" transform="translate(408.478 -30.627)" opacity="0.2"/>
      <path id="Pfad_43" data-name="Pfad 43" d="M341.383,348.083H285.506l10.828-15.728.779-1.133,14.11-20.5a2.855,2.855,0,0,1,4.238-.253,2.549,2.549,0,0,1,.2.253Z" transform="translate(230.409 -183.522)" fill="#fff"/>
      <circle id="Ellipse_9" data-name="Ellipse 9" cx="9.571" cy="9.571" r="9.571" transform="translate(520.108 105.01)" fill="#fff"/>
      <rect id="Rechteck_5" data-name="Rechteck 5" width="11.697" height="11.697" transform="translate(461.302 87.198)" fill="#3f3d56"/>
      <path id="Pfad_44" data-name="Pfad 44" d="M575.138,565.365h9.282l4.416-35.8h-13.7Z" transform="translate(-441.913 -91.239)" fill="#a0616a"/>
      <path id="Pfad_45" data-name="Pfad 45" d="M782.066,738.451h29.929v-.379a11.649,11.649,0,0,0-11.648-11.649H782.065Z" transform="translate(-651.208 -255.329)" fill="#2f2e41"/>
      <path id="Pfad_46" data-name="Pfad 46" d="M652.394,556.478l8.881,2.7L675.906,526.2,662.8,522.222Z" transform="translate(-592.93 -89.975)" fill="#a0616a"/>
      <path id="Pfad_47" data-name="Pfad 47" d="M875.034,728.051l28.637,8.7.11-.362a11.65,11.65,0,0,0-7.761-14.532h0l-17.491-5.312Z" transform="translate(-820.451 -253.627)" fill="#2f2e41"/>
      <circle id="Ellipse_10" data-name="Ellipse 10" cx="19.309" cy="19.309" r="19.309" transform="translate(132.478 98.221)" fill="#a0616a"/>
      <path id="Pfad_48" data-name="Pfad 48" d="M546.753,492.857l19.053,8.166L609.9,397.046l3.538,115.681,19.053-1.088L653.723,330.36l-1.633-10.343-72.13,16.058-1.088,58.248Z" transform="translate(-483.307 -55.137)" fill="#2f2e41"/>
      <path id="Pfad_49" data-name="Pfad 49" d="M809.567,288.512s-12.521-11.432-16.331-6.533-4.9,5.988-7.077,5.988-7.621,5.988-7.621,5.988-2.722-5.444-5.988-1.089-3.811,10.887-3.811,10.887-11.976-27.763,9.254-33.206S814.466,281.98,809.567,288.512Z" transform="translate(-635.885 -176.602)" fill="#2f2e41"/>
      <path id="Pfad_50" data-name="Pfad 50" d="M781.662,474.915c10.343-4.529,10.648-.974,25.586,4.9,18.814,2.335,30.774,2.635,36.745-5.172,2.444-15.5,4.448-30.36,5.683-44.492q.384-4.369.664-8.65c2.177-33.245-.49-62.146-12.608-85.4l-21.775-16.331-7.1,5.155c-16.968,12.314-14.328,31.231-16.582,52.075Z" transform="translate(-689.908 -185.266)" fill="#e6e6e6"/>
      <path id="Pfad_51" data-name="Pfad 51" d="M807.624,382.577s-32.162,41.917-9.189,60.97,35.822,31.029,35.822,31.029S832.893,392.376,807.624,382.577Z" transform="translate(-680.172 -196.087)" opacity="0.2"/>
      <path id="Pfad_52" data-name="Pfad 52" d="M782.494,422.341l19.837,16.478q.384-4.369.664-8.65l-13.424-60.088Z" transform="translate(-642.564 -193.934)" opacity="0.2"/>
      <path id="Pfad_53" data-name="Pfad 53" d="M776.823,500.161a8.74,8.74,0,0,1-3-13.06l-10.095-17.232,8.976-8.689,13.914,24.535a8.787,8.787,0,0,1-9.791,14.446Z" transform="translate(-613.68 -209.63)" fill="#a0616a"/>
      <path id="Pfad_54" data-name="Pfad 54" d="M801.79,466.015l15.787-12.521-20.686-52.26-.47-54.474a12.4,12.4,0,0,0-8.248-11.58h0A12.4,12.4,0,0,0,771.616,346.7l-.855,63.244Z" transform="translate(-647.434 -187.797)" fill="#e6e6e6"/>
    </g>
  </g>
</svg>
